<svg width="265" height="264" viewBox="0 0 265 264" fill="none" xmlns="http://www.w3.org/2000/svg">
<circle cx="132.5" cy="131.5" r="113" fill="#161515" stroke="#161515" stroke-width="3"/>
<path d="M262.5 132C262.5 203.512 204.306 261.5 132.5 261.5C60.6941 261.5 2.5 203.512 2.5 132C2.5 60.488 60.6941 2.5 132.5 2.5C204.306 2.5 262.5 60.488 262.5 132Z" stroke="#161515" stroke-width="5"/>
<rect x="83.5383" y="105.295" width="98.0769" height="91.2051" rx="9.5" stroke="white" stroke-width="5"/>
<path d="M104.936 144.667H160.218C162.151 144.667 163.718 146.234 163.718 148.167V175.961C163.718 177.894 162.151 179.461 160.218 179.461H104.936C103.003 179.461 101.436 177.894 101.436 175.961V148.166C101.436 146.234 103.003 144.667 104.936 144.667Z" stroke="white" stroke-width="3"/>
<path d="M104.936 144.667H160.218C162.151 144.667 163.718 146.234 163.718 148.167V159.641C163.718 161.574 162.151 163.141 160.218 163.141H104.936C103.003 163.141 101.436 161.574 101.436 159.641V148.167C101.436 146.234 103.003 144.667 104.936 144.667Z" stroke="white" stroke-width="3"/>
<rect x="112.103" y="146.743" width="9.16667" height="24.6282" fill="white" stroke="white" stroke-width="2"/>
<rect x="143.885" y="146.743" width="9.16667" height="24.6282" fill="white" stroke="white" stroke-width="2"/>
<rect x="65.5" y="150.82" width="17.3333" height="34.5128" rx="2.5" stroke="white" stroke-width="5"/>
<rect x="182.321" y="150.82" width="17.3333" height="34.5128" rx="2.5" stroke="white" stroke-width="5"/>
<rect x="86.1152" y="67.5" width="92.0641" height="35.3718" rx="2.5" stroke="white" stroke-width="5"/>
<rect x="-1" y="1" width="6.58974" height="35.7949" transform="matrix(-1 0 0 1 106.526 66.7179)" stroke="white" stroke-width="2"/>
<rect x="-1" y="1" width="6.58974" height="35.7949" transform="matrix(-1 0 0 1 160.641 66.7179)" stroke="white" stroke-width="2"/>
</svg>
