<svg width="265" height="264" viewBox="0 0 265 264" fill="none" xmlns="http://www.w3.org/2000/svg">
<circle cx="132.5" cy="131.5" r="113" fill="#161515" stroke="#161515" stroke-width="3"/>
<path d="M54.2987 172.75L132.336 48.6952L210.373 172.75H54.2987Z" fill="#161515" stroke="white" stroke-width="5"/>
<path d="M132 49V91.5289L162 173" stroke="white" stroke-width="5"/>
<path d="M132 48V91.546L102 174" stroke="white" stroke-width="5"/>
<path d="M132.075 89.0597L80.8806 157.143L103.082 172.642" stroke="white" stroke-width="5"/>
<path d="M131 90L182 157.609L159.883 173" stroke="white" stroke-width="5"/>
<path d="M262.5 132C262.5 203.512 204.306 261.5 132.5 261.5C60.6941 261.5 2.5 203.512 2.5 132C2.5 60.488 60.6941 2.5 132.5 2.5C204.306 2.5 262.5 60.488 262.5 132Z" stroke="#161515" stroke-width="5"/>
</svg>
