<svg width="265" height="264" viewBox="0 0 265 264" fill="none" xmlns="http://www.w3.org/2000/svg">
<circle cx="132.5" cy="131.5" r="113" fill="#161515" stroke="#161515" stroke-width="3"/>
<path d="M262.5 132C262.5 203.512 204.306 261.5 132.5 261.5C60.6941 261.5 2.5 203.512 2.5 132C2.5 60.488 60.6941 2.5 132.5 2.5C204.306 2.5 262.5 60.488 262.5 132Z" stroke="#161515" stroke-width="5"/>
<path d="M52 202.141C54.8372 202.141 115.431 202.141 166.987 202.141C183.34 202.141 198.783 202.141 211.185 202.141L199.327 173.753L194.656 163.692L188.709 171.956L170.581 143.21L150.098 171.956" stroke="white" stroke-width="5"/>
<path d="M52.7188 202.5L82.5436 159.02L90.9879 166.027M99.4323 173.034L90.9879 166.027M90.9879 166.027L106.978 144.288L115.243 149.318L132.491 118.775L142.193 133.867L151.536 125.962L162.316 154.708" stroke="white" stroke-width="5"/>
<path d="M132.491 119.853V100.09M132.491 100.09V87.1534C134.407 88.3512 138.743 90.3874 140.756 88.9501C143.271 87.1534 148.302 82.8414 150.817 84.9974C153.332 87.1534 157.285 87.1534 159.441 84.9974V101.527C157.285 101.886 152.757 102.102 151.895 100.09C151.033 98.0772 146.026 100.209 143.63 101.527C140.756 102.485 134.503 103.539 132.491 100.09Z" stroke="white" stroke-width="5"/>
<path d="M176.689 100.09H187.11M106.26 95.7775H116.321M137.162 71.702V62M158.363 73.4987L161.956 64.156M119.555 78.5294L111.29 72.4207M173.096 82.8414L182.439 78.5294" stroke="white" stroke-width="5"/>
</svg>
