<svg id="af91acbb-1d89-4b74-b2fd-9cbaac66073d" data-name="man" xmlns="http://www.w3.org/2000/svg" viewBox="0 0 377.66 691.58"><defs><style>.b11116db-4612-4f83-9dd9-e7b8829a285d{fill:#161515;}.a2459472-2f96-4fa9-b547-387d27764434{fill:#353333;}.a0a17fc2-93cd-4838-9445-fdc37e87d0ff{fill:#514f4f;}.fb07c859-b9d8-4ef1-a300-b5d0c16d396b{fill:none;stroke:#514f4f;stroke-miterlimit:10;}</style></defs><path class="b11116db-4612-4f83-9dd9-e7b8829a285d" d="M885.32,1499s-9-47.42-8.28-89.9c0,0-6.56-3.6,0-10.08,0,0-.37-5,2.72-20.16,0,0,3.8-6.72-3.4-10.56,0,0-3.6-5,6-6a19,19,0,0,0,1.2-10.32s-1-5.28-5.52,0c0,0-9.6,6.48-14.64-7.2,0,0-1.2-8.16-14.64-13.68,0,0-3.6-1.92-2.16-7.68,0,0,1.2-1.2-4.8-7.92a16.32,16.32,0,0,1-5-6.72s-4.56-12.24-11.28-18.72c0,0-9.12-15.12,2.16-28.8,0,0-12.48-26.64-2.64-34.8a21.8,21.8,0,0,1,1.68-17s1.68-18.24,5.76-21.84l5.52-50.64s1.68-21.84,7.2-36.48c0,0,11.52-37.2,15.36-45.12,0,0,7.2-17.76,12-24,0,0,9.6-15.6,25.44-19.92,0,0-1.68-7.44,6.48-12.48,0,0,7.44-3,14.64,1,0,0,2.4-9,11.28-8.72,0,0-4.32-14.64,0-23.28,0,0,1.92-5,2.4-14.88,0,0-.24-10.8,4.08-19,0,0,1.92-3.36,1.2-9.12,0,0-1.68-7.68,5.28-18.72,0,0,4.08-10.8,4.8-15.36s2.4-16.8,5-23,12.48-33.36,23.76-38.4c0,0,2.88-.48,6.72-6.48,0,0,3.12-6,11.52-8.16a28.24,28.24,0,0,1,3.12-1.92s.48-1.68,7.68-2.64c0,0,2.64-4.32,11.28,0,0,0,19.92,9.12,26.4,19.68a28.33,28.33,0,0,0,7.2,6.48c5,3.36,11.52,16.56,11.52,16.56s8.17,21.38,12,25.92c0,0,10.13,18.7,13.92,33.36,0,0,6.24,22.56,5.28,35.76s-1.68,35.28-7.92,38.4c0,0,5,1.92,9.84,12,0,0,2.4,8.4,6,7.92,0,0,15.6,1,14.4,10.32a41.12,41.12,0,0,0,15.36,6.24s18.24,2.64,18.72,16.32c0,0,.72,7.92,10.8,16.08,0,0,18.24,14.4,19.92,50.16,0,0-1.2,5.52,2.16,9.36,0,0,2.4,2.64,2.64,10.56s6.48,22.8,5.52,30.72-1.68,15.12,1.44,36.72c0,0,1,2.4,0,10.08,0,0,5.52,1.44,2.4,18.72,0,0,5.52,4.32,2.88,14.64,0,0-2.16,8.88-5,11.76a18.4,18.4,0,0,0-.48,9.6c1.2,5-2.64,17.28-2.64,17.28a12.28,12.28,0,0,1-5.52,9.36s6,10.32,2.88,19.2c0,0-3.6,4.32-3.12,8.4a18.13,18.13,0,0,1-7,9.12,24.71,24.71,0,0,0-10.08,12.48,30.44,30.44,0,0,1-7.92,15.12s-7,11-14.16,15.36c0,0-6,2.88-8.16-2.16,0,0-.48-2.64-2.4-2.16l-7.2.48s-3.6,6,3.12,10.8c0,0,8.16,4.32,2.64,13,0,0,3.6,6.48-1.68,12a34.55,34.55,0,0,1,3.12,18.24s1.44,13.2-1,19c0,0-2.64,47.52-11,62.88l-1.92,3Z" transform="translate(-820.73 -807.45)"/><path class="a2459472-2f96-4fa9-b547-387d27764434" d="M826.88,1263.2s-10.08,8.64-2.88,22.08c0,0-1.44-10.08,2.88-5.28,0,0,3.84,4.32,4.8-1.44S826.88,1263.2,826.88,1263.2Z" transform="translate(-820.73 -807.45)"/><path class="a2459472-2f96-4fa9-b547-387d27764434" d="M821.41,1233.56s2.71-3.13,2.71,0,1,8.88,2.48,4.2c0,0,3.16-1-1.64-11.28Z" transform="translate(-820.73 -807.45)"/><path class="a2459472-2f96-4fa9-b547-387d27764434" d="M833.06,1181.55s5.46-10.75,7.62-21.19c0,0,.3-11.16-3.81-11.16Z" transform="translate(-820.73 -807.45)"/><path class="a2459472-2f96-4fa9-b547-387d27764434" d="M865.79,1043.32s5.49-9,9.09-5.72c0,0,7.56-19.08,13-13.68,0,0,8.64-11.88,9.36-6.84s.72-5.64.72-5.64S876,1018.29,865.79,1043.32Z" transform="translate(-820.73 -807.45)"/><path class="a2459472-2f96-4fa9-b547-387d27764434" d="M897.92,1008a20.22,20.22,0,0,1,15.22-9.93s-5.83-1.24-10.71,1.15C902.43,999.21,897.92,1004.54,897.92,1008Z" transform="translate(-820.73 -807.45)"/><path class="a2459472-2f96-4fa9-b547-387d27764434" d="M927.08,1008s5-16.63,13-10.25c0,0,2.42-7.59-4.32-10.18C935.72,987.56,927.08,988.46,927.08,1008Z" transform="translate(-820.73 -807.45)"/><path class="a2459472-2f96-4fa9-b547-387d27764434" d="M915.2,1009.52s7.92-16.88,11.88-9.52l3.4-8.24s-6.1-1.55-8.77,3.34S915.2,1009.52,915.2,1009.52Z" transform="translate(-820.73 -807.45)"/><path class="a2459472-2f96-4fa9-b547-387d27764434" d="M954.1,865.53s3.58-7.21,4.3,9.71c0,0,1.44-22.68,4.32-19.44,0,0,2.88-13.68,6.12-10.44,0,0,3.6,6.21,4.32-.5,0,0,2.16-12.46,6.48-12.1,0,0,1.32-5.91,2.64-7.82s-4,3.87-5.4,4.58S962.75,840,954.1,865.53Z" transform="translate(-820.73 -807.45)"/><path class="a2459472-2f96-4fa9-b547-387d27764434" d="M985,821.11s4-3.47,8-2.75c0,0,11-8.64,16.83-7.56s16.65,4.32,26.37,15.84c0,0-3.25-4.41,2.52,0l6.09,4.77s-7.75-10-16.32-14.91c0,0-11.2-8.7-16.05-8.1,0,0-1.15-1.72-9.22,2.38,0,0-5.46.43-8.78,4C994.4,814.76,987.64,817.28,985,821.11Z" transform="translate(-820.73 -807.45)"/><path class="a0a17fc2-93cd-4838-9445-fdc37e87d0ff" d="M877,1409.32c-5.88-2.81-5.76-7.52-.25-10.68l-.2.36a121.35,121.35,0,0,1,2-15.17c.29-1.67.67-3.33,1-5l.36.08c-.53,3.34-1,6.7-1.38,10.06l-1,10.1,0,.18c-1.28,1.43-3.11,3-3.38,5s1.35,4,3,4.7l-.18.4Z" transform="translate(-820.73 -807.45)"/><path class="a0a17fc2-93cd-4838-9445-fdc37e87d0ff" d="M852.89,1333.56c-5.41-.53-8.58-6.4-7-11.39l.12.41c-1.81-2.07-3.57-4.18-5.25-6.36a38.35,38.35,0,0,1-4.7-7.3c-.37-.62-1.1-1.81-1.5-2.43-1.13-1.75-4.16-6.51-5.32-8.33-2.31-3.72-4.75-7.47-6.28-11.7-3.3-8.33-3.87-19.79,4.45-25.41a38.69,38.69,0,0,1,4.41,10.51c.68,2.73,1.69,9.13-1.81,10.12,4.05-3.09-2.22-15.26-3.26-19.62l.78.16c-6.66,6-6.22,15.91-3.25,23.75,2.11,5.86,6.24,11.75,9.46,17.15.8,1.28,2.26,3.64,3,4.93a40.49,40.49,0,0,0,4.79,7.57c1.7,2.22,3.5,4.38,5.37,6.47-.51,4.75,1.47,9.21,6,11.11l-.08.36Z" transform="translate(-820.73 -807.45)"/><path class="fb07c859-b9d8-4ef1-a300-b5d0c16d396b" d="M827.23,1261.84s-11.44-26.1-2.27-35.36" transform="translate(-820.73 -807.45)"/><path class="a0a17fc2-93cd-4838-9445-fdc37e87d0ff" d="M827.14,1209.47c-.15,1.47-1.24,2.23-1.7,3.46-1.33,3.37-.77,7.16-.25,10.7a87.73,87.73,0,0,0,2.52,10.78c.33,1.16.44,3-1,3.43l-.06-.16a1.63,1.63,0,0,0,.62-.57,3.26,3.26,0,0,0-.16-2.5c-.4-1.17-.79-2.36-1.16-3.54-1.28-4.84-2.52-9.72-2.29-14.79a11.38,11.38,0,0,1,.88-3.77c.38-1.09,1.5-2,1.64-3.1l1,.06Z" transform="translate(-820.73 -807.45)"/><path class="a0a17fc2-93cd-4838-9445-fdc37e87d0ff" d="M827.32,1216.55c-1.62-9-2.05-22.16,4.69-29.26.47-10.22,2-23.34,3.11-34.53,1.28-11.57,2.57-23.14,4.08-34.71a51.07,51.07,0,0,1,1.86-8.65c2.42-8.14,5.15-17,7.85-25,3.66-10.92,7.79-22.39,12.28-32.67,6.18-17.41,17.79-35.65,36.6-40.74l.62-.18v.73A111.94,111.94,0,0,0,899.9,1030l-.36.14c-3.15-5.62-3.5-12.55-2.11-18.74l.61.55a38.65,38.65,0,0,0-6.48,2.44c-14.64,7.49-23.62,22.79-28.93,37.84-4.58,10.67-8.48,21.65-12.14,32.7-2.66,8-5.36,16.88-7.73,25a49.44,49.44,0,0,0-1.78,8.4c-2.9,23.1-5,46.33-8.09,69.41-3.44,6.59-4.48,14-4.85,21.35q-.18,3.71-.16,7.44l-.56.06Z" transform="translate(-820.73 -807.45)"/><path class="a0a17fc2-93cd-4838-9445-fdc37e87d0ff" d="M853.47,1096.62a337.41,337.41,0,0,1,5-33.8,74.42,74.42,0,0,1,3-11.08l.94.37c-2.85,10.51-4.41,22.62-6.49,33.37-.68,3.73-1.35,7.46-2.09,11.18l-.34,0Z" transform="translate(-820.73 -807.45)"/><path class="a0a17fc2-93cd-4838-9445-fdc37e87d0ff" d="M873.94,1061.33c-1.07-13.34-1.47-35.94,10.57-44.59,3.31-2.23,6.67-5,10.91-5.13a2.92,2.92,0,0,1,2.72,3.31l-1,0c-.14-1.09-.56-2-1.77-2-3.57.53-6.7,3.25-9.61,5.37-8,6.11-9.49,18-10.6,27.47-.48,5.16-.58,10.27-.63,15.55l-.59-.06Z" transform="translate(-820.73 -807.45)"/><path class="a0a17fc2-93cd-4838-9445-fdc37e87d0ff" d="M896.5,1012.86c.63-14.08,10.15-20.15,22.75-13.31l-.69.32a11.48,11.48,0,0,1,.68-3.39c1-2.84,3.23-5.81,6.51-6.13a15.14,15.14,0,0,1,4.77.91l-.48.27c.87-3.67,5.57-6.91,8.44-3.08a8.48,8.48,0,0,1,1.43,3.08c-1.19-1.37-2.76-3.42-4.63-3.11-1.89.48-3.23,2.55-4.68,3.89l-.16,0c-1.82.42-3.89-.12-5.51.86-2.51,1.57-3.79,4.4-5.41,7l-.35.59-.34-.27c-12.15-5.19-19.4-.51-20.69,12.45l-1.64,0Z" transform="translate(-820.73 -807.45)"/><path class="a0a17fc2-93cd-4838-9445-fdc37e87d0ff" d="M927,1008c-.38-3.33-1-16.34,3.47-16.73l-.43.66c-2.37-7.75-3.48-16.5-.14-24.13l.9.42c-3.25,7.47-2.08,16.14.29,23.7l-.54.35a27.24,27.24,0,0,0-.85,3.35c-1,4.08-1.53,8.24-2.48,12.39Z" transform="translate(-820.73 -807.45)"/><path class="a0a17fc2-93cd-4838-9445-fdc37e87d0ff" d="M915.11,1009.48c.95-2.86,2.1-6,3.17-8.83l.55-1.47a3,3,0,0,1,.75-1.37l.92.38a3,3,0,0,1-.46,1.51l-.66,1.41-1.33,2.83c-.9,1.88-1.81,3.76-2.76,5.62l-.18-.08Z" transform="translate(-820.73 -807.45)"/><path class="a0a17fc2-93cd-4838-9445-fdc37e87d0ff" d="M932.12,982.88s-4-18.36,0-26.64c0,0,1.46-15.66,4.68-22.08,0,0-1.12-23,7.72-31.25,0,0,1.93-2,3.56-11.95,0,0-4.56,23.52,0,37.2" transform="translate(-820.73 -807.45)"/><path class="a0a17fc2-93cd-4838-9445-fdc37e87d0ff" d="M947.59,890.88a122.23,122.23,0,0,1,6-27c1-2.9,2.43-5.69,3.66-8.5,2.47-5.58,5.12-11.25,8.83-16.26,3.35-4.67,9.24-10.1,13.35-12.4,2.83-6.3,9.13-10.32,15.53-12.3l-.31.3a6.14,6.14,0,0,1,3.47-3.91,7.28,7.28,0,0,1,5.06-.52l-.34.13c5.81-5.36,14.8-2.7,20.09,2.06l-.18.25a48.79,48.79,0,0,0-4.72-2.28c-4.64-1.88-10.22-2.12-14.51.71l-.23.15-.11,0c-2.74.79-6.1,1.3-7.65,4a31.83,31.83,0,0,0-12.3,8,21.72,21.72,0,0,0-2.94,3.94l-.13.09A52,52,0,0,0,967.28,840c-3.53,4.92-6,10.48-8.42,16.1-.89,2.1-1.91,4.16-2.78,6.28a92,92,0,0,0-3.34,10.85c-1.49,5.91-2.61,11.91-4.17,17.83l-1-.16Z" transform="translate(-820.73 -807.45)"/><path class="a0a17fc2-93cd-4838-9445-fdc37e87d0ff" d="M981.77,824.79c.14.32.71.41,1,.49,5,.5,10.12-.56,15.15-.92l.08.4a51.16,51.16,0,0,1-8.71,2.18c-2.48.3-5.21.77-7.59-.39a1.64,1.64,0,0,1-.87-2.21l.9.45Z" transform="translate(-820.73 -807.45)"/><path class="a0a17fc2-93cd-4838-9445-fdc37e87d0ff" d="M980.26,827.24c-3.12,5.49-4.74,11.73-6.73,17.69l-.74-.13a31.46,31.46,0,0,1,1.77-9.64,22.43,22.43,0,0,1,5-8.57l.75.65Z" transform="translate(-820.73 -807.45)"/><path class="a0a17fc2-93cd-4838-9445-fdc37e87d0ff" d="M958.3,873.4c-1.48-6.74-1.74-18.86,1.81-24.16.6-1.29,2.33-2.9,3.67-1.58a4.71,4.71,0,0,1,1.06,2.07l-1,.08a60.67,60.67,0,0,1,2.47-9.67,10.8,10.8,0,0,1,1.6-3.08l.75.65a18.68,18.68,0,0,0-2.4,5.88,48.71,48.71,0,0,0-1.61,8.11,26.77,26.77,0,0,0-1.4-2.72c-.52-.61-.62-.63-1.15,0-2.46,3.43-2.56,8.21-2.94,12.39-.21,3.55-.42,8.55-.9,12.06Z" transform="translate(-820.73 -807.45)"/><path class="fb07c859-b9d8-4ef1-a300-b5d0c16d396b" d="M954.1,865.18s3.17-10.06,4.27-5.42" transform="translate(-820.73 -807.45)"/><path class="a0a17fc2-93cd-4838-9445-fdc37e87d0ff" d="M826.84,1237.71a3,3,0,0,1-1,1.83.58.58,0,0,1-.58.09c-.4-.25-.34-.58-.39-.85l.15,0c.13.21.28.5.39.49.5-.28.82-1.14,1.25-1.61l.2.08Z" transform="translate(-820.73 -807.45)"/><path class="a0a17fc2-93cd-4838-9445-fdc37e87d0ff" d="M962.16,846.93s2.68,1.56,2.21,3l2.63-10Z" transform="translate(-820.73 -807.45)"/></svg>