<svg width="265" height="264" viewBox="0 0 265 264" fill="none" xmlns="http://www.w3.org/2000/svg">
<circle cx="132.5" cy="131.5" r="113" fill="#161515" stroke="#161515" stroke-width="3"/>
<path d="M262.5 132C262.5 203.512 204.306 261.5 132.5 261.5C60.6941 261.5 2.5 203.512 2.5 132C2.5 60.488 60.6941 2.5 132.5 2.5C204.306 2.5 262.5 60.488 262.5 132Z" stroke="#161515" stroke-width="5"/>
<path fill-rule="evenodd" clip-rule="evenodd" d="M163.245 159.014C172.39 149.549 178.129 135.912 178.129 120.752C178.129 92.1702 157.729 69 132.564 69C107.4 69 87 92.1702 87 120.752C87 135.859 92.6989 149.454 101.788 158.915L126.869 190.88L128.144 192.853C130.512 196.515 135.873 196.507 138.231 192.838L140.338 189.557L163.245 159.014Z" fill="white"/>
<path d="M163.245 159.014L161.447 157.277L161.339 157.389L161.245 157.514L163.245 159.014ZM101.788 158.915L103.755 157.372L103.678 157.273L103.591 157.183L101.788 158.915ZM126.869 190.88L128.968 189.523L128.906 189.427L128.836 189.337L126.869 190.88ZM128.144 192.853L126.044 194.21L126.044 194.21L128.144 192.853ZM138.231 192.838L140.334 194.189L140.334 194.189L138.231 192.838ZM140.338 189.557L138.338 188.057L138.284 188.129L138.235 188.206L140.338 189.557ZM165.043 160.751C174.653 150.805 180.629 136.539 180.629 120.752H175.629C175.629 135.285 170.127 148.293 161.447 157.277L165.043 160.751ZM180.629 120.752C180.629 91.0981 159.399 66.5 132.564 66.5V71.5C156.058 71.5 175.629 93.2423 175.629 120.752H180.629ZM132.564 66.5C105.729 66.5 84.5 91.0981 84.5 120.752H89.5C89.5 93.2423 109.07 71.5 132.564 71.5V66.5ZM84.5 120.752C84.5 136.484 90.4345 150.705 99.9853 160.647L103.591 157.183C94.9634 148.202 89.5 135.234 89.5 120.752H84.5ZM128.836 189.337L103.755 157.372L99.8213 160.458L124.902 192.424L128.836 189.337ZM124.769 192.238L126.044 194.21L130.243 191.495L128.968 189.523L124.769 192.238ZM126.044 194.21C129.4 199.399 136.994 199.387 140.334 194.189L136.127 191.486C134.752 193.627 131.625 193.632 130.243 191.495L126.044 194.21ZM140.334 194.189L142.441 190.908L138.235 188.206L136.127 191.486L140.334 194.189ZM161.245 157.514L138.338 188.057L142.338 191.057L165.245 160.514L161.245 157.514Z" fill="white"/>
<path d="M153 113C153 123.493 144.046 132 133 132C121.954 132 113 123.493 113 113C113 102.507 121.954 94 133 94C144.046 94 153 102.507 153 113Z" fill="#161515"/>
</svg>
