<svg width="27" height="27" viewBox="0 0 27 27" fill="none" xmlns="http://www.w3.org/2000/svg">
<path d="M27 13.5C27 20.9558 20.9558 27 13.5 27C6.04416 27 0 20.9558 0 13.5C0 6.04416 6.04416 0 13.5 0C20.9558 0 27 6.04416 27 13.5Z" fill="url(#paint0_linear_515_5)"/>
<path d="M11.34 17.55V26.73C11.34 26.8791 11.4609 27 11.61 27H15.39C15.5391 27 15.66 26.8791 15.66 26.73V17.55C15.66 17.4009 15.7809 17.28 15.93 17.28H18.63C18.7791 17.28 18.9 17.1591 18.9 17.01V13.77C18.9 13.6209 18.7791 13.5 18.63 13.5H15.93C15.7809 13.5 15.66 13.3793 15.66 13.2302V10.8C15.66 9.72 17.01 9.18 17.55 9.18H19.17C19.3191 9.18 19.44 9.05912 19.44 8.91V5.67C19.44 5.52088 19.3192 5.4 19.17 5.4H15.66C13.068 5.4 11.34 8.1 11.34 9.72V13.23C11.34 13.3791 11.2191 13.5 11.07 13.5H8.37C8.22088 13.5 8.1 13.6209 8.1 13.77V17.01C8.1 17.1591 8.22088 17.28 8.37 17.28H11.07C11.2191 17.28 11.34 17.4009 11.34 17.55Z" fill="black"/>
<defs>
<linearGradient id="paint0_linear_515_5" x1="13.5" y1="0" x2="13.5" y2="27" gradientUnits="userSpaceOnUse">
<stop stop-color="white"/>
<stop offset="1" stop-color="white"/>
</linearGradient>
</defs>
</svg>
