<svg width="555" height="228" viewBox="0 0 555 228" fill="none" xmlns="http://www.w3.org/2000/svg">
<path d="M259.96 92V52.24H244.28V43H286.98V52.24H271.3V92H259.96ZM315.201 53.78C318.188 53.78 320.848 54.3867 323.181 55.6C325.561 56.7667 327.428 58.5867 328.781 61.06C330.135 63.4867 330.811 66.6133 330.811 70.44V92H319.891V72.12C319.891 69.0867 319.215 66.8467 317.861 65.4C316.555 63.9533 314.688 63.23 312.261 63.23C310.535 63.23 308.971 63.6033 307.571 64.35C306.218 65.05 305.145 66.1467 304.351 67.64C303.605 69.1333 303.231 71.0467 303.231 73.38V92H292.311V40.06H303.231V64.77L300.781 61.62C302.135 59.1 304.071 57.1633 306.591 55.81C309.111 54.4567 311.981 53.78 315.201 53.78ZM359.673 92.56C355.38 92.56 351.6 91.72 348.333 90.04C345.113 88.36 342.617 86.0733 340.843 83.18C339.07 80.24 338.183 76.9033 338.183 73.17C338.183 69.39 339.047 66.0533 340.773 63.16C342.547 60.22 344.95 57.9333 347.983 56.3C351.017 54.62 354.447 53.78 358.273 53.78C361.96 53.78 365.273 54.5733 368.213 56.16C371.2 57.7 373.557 59.94 375.283 62.88C377.01 65.7733 377.873 69.25 377.873 73.31C377.873 73.73 377.85 74.22 377.803 74.78C377.757 75.2933 377.71 75.7833 377.663 76.25H347.073V69.88H371.923L367.723 71.77C367.723 69.81 367.327 68.1067 366.533 66.66C365.74 65.2133 364.643 64.0933 363.243 63.3C361.843 62.46 360.21 62.04 358.343 62.04C356.477 62.04 354.82 62.46 353.373 63.3C351.973 64.0933 350.877 65.2367 350.083 66.73C349.29 68.1767 348.893 69.9033 348.893 71.91V73.59C348.893 75.6433 349.337 77.4633 350.223 79.05C351.157 80.59 352.44 81.78 354.073 82.62C355.753 83.4133 357.713 83.81 359.953 83.81C361.96 83.81 363.71 83.5067 365.203 82.9C366.743 82.2933 368.143 81.3833 369.403 80.17L375.213 86.47C373.487 88.43 371.317 89.9467 368.703 91.02C366.09 92.0467 363.08 92.56 359.673 92.56ZM271.93 138.78C274.917 138.78 277.577 139.387 279.91 140.6C282.29 141.767 284.157 143.587 285.51 146.06C286.863 148.487 287.54 151.613 287.54 155.44V177H276.62V157.12C276.62 154.087 275.943 151.847 274.59 150.4C273.283 148.953 271.417 148.23 268.99 148.23C267.263 148.23 265.7 148.603 264.3 149.35C262.947 150.05 261.873 151.147 261.08 152.64C260.333 154.133 259.96 156.047 259.96 158.38V177H249.04V125.06H259.96V149.77L257.51 146.62C258.863 144.1 260.8 142.163 263.32 140.81C265.84 139.457 268.71 138.78 271.93 138.78ZM297.438 177V139.34H308.358V177H297.438ZM302.898 134.09C300.892 134.09 299.258 133.507 297.998 132.34C296.738 131.173 296.108 129.727 296.108 128C296.108 126.273 296.738 124.827 297.998 123.66C299.258 122.493 300.892 121.91 302.898 121.91C304.905 121.91 306.538 122.47 307.798 123.59C309.058 124.663 309.688 126.063 309.688 127.79C309.688 129.61 309.058 131.127 307.798 132.34C306.585 133.507 304.952 134.09 302.898 134.09ZM336.203 191.14C332.656 191.14 329.226 190.697 325.913 189.81C322.646 188.97 319.916 187.687 317.723 185.96L322.063 178.12C323.65 179.427 325.656 180.453 328.083 181.2C330.556 181.993 332.983 182.39 335.363 182.39C339.236 182.39 342.036 181.527 343.763 179.8C345.536 178.073 346.423 175.507 346.423 172.1V166.43L347.123 156.98L346.983 147.46V139.34H357.343V170.7C357.343 177.7 355.523 182.857 351.883 186.17C348.243 189.483 343.016 191.14 336.203 191.14ZM334.523 175.18C331.023 175.18 327.85 174.433 325.003 172.94C322.203 171.4 319.94 169.277 318.213 166.57C316.533 163.817 315.693 160.62 315.693 156.98C315.693 153.293 316.533 150.097 318.213 147.39C319.94 144.637 322.203 142.513 325.003 141.02C327.85 139.527 331.023 138.78 334.523 138.78C337.696 138.78 340.496 139.433 342.923 140.74C345.35 142 347.24 143.983 348.593 146.69C349.946 149.35 350.623 152.78 350.623 156.98C350.623 161.133 349.946 164.563 348.593 167.27C347.24 169.93 345.35 171.913 342.923 173.22C340.496 174.527 337.696 175.18 334.523 175.18ZM336.693 166.22C338.606 166.22 340.31 165.847 341.803 165.1C343.296 164.307 344.463 163.21 345.303 161.81C346.143 160.41 346.563 158.8 346.563 156.98C346.563 155.113 346.143 153.503 345.303 152.15C344.463 150.75 343.296 149.677 341.803 148.93C340.31 148.137 338.606 147.74 336.693 147.74C334.78 147.74 333.076 148.137 331.583 148.93C330.09 149.677 328.9 150.75 328.013 152.15C327.173 153.503 326.753 155.113 326.753 156.98C326.753 158.8 327.173 160.41 328.013 161.81C328.9 163.21 330.09 164.307 331.583 165.1C333.076 165.847 334.78 166.22 336.693 166.22ZM390.397 138.78C393.383 138.78 396.043 139.387 398.377 140.6C400.757 141.767 402.623 143.587 403.977 146.06C405.33 148.487 406.007 151.613 406.007 155.44V177H395.087V157.12C395.087 154.087 394.41 151.847 393.057 150.4C391.75 148.953 389.883 148.23 387.457 148.23C385.73 148.23 384.167 148.603 382.767 149.35C381.413 150.05 380.34 151.147 379.547 152.64C378.8 154.133 378.427 156.047 378.427 158.38V177H367.507V125.06H378.427V149.77L375.977 146.62C377.33 144.1 379.267 142.163 381.787 140.81C384.307 139.457 387.177 138.78 390.397 138.78ZM434.869 177.56C430.575 177.56 426.795 176.72 423.529 175.04C420.309 173.36 417.812 171.073 416.039 168.18C414.265 165.24 413.379 161.903 413.379 158.17C413.379 154.39 414.242 151.053 415.969 148.16C417.742 145.22 420.145 142.933 423.179 141.3C426.212 139.62 429.642 138.78 433.469 138.78C437.155 138.78 440.469 139.573 443.409 141.16C446.395 142.7 448.752 144.94 450.479 147.88C452.205 150.773 453.069 154.25 453.069 158.31C453.069 158.73 453.045 159.22 452.999 159.78C452.952 160.293 452.905 160.783 452.859 161.25H422.269V154.88H447.119L442.919 156.77C442.919 154.81 442.522 153.107 441.729 151.66C440.935 150.213 439.839 149.093 438.439 148.3C437.039 147.46 435.405 147.04 433.539 147.04C431.672 147.04 430.015 147.46 428.569 148.3C427.169 149.093 426.072 150.237 425.279 151.73C424.485 153.177 424.089 154.903 424.089 156.91V158.59C424.089 160.643 424.532 162.463 425.419 164.05C426.352 165.59 427.635 166.78 429.269 167.62C430.949 168.413 432.909 168.81 435.149 168.81C437.155 168.81 438.905 168.507 440.399 167.9C441.939 167.293 443.339 166.383 444.599 165.17L450.409 171.47C448.682 173.43 446.512 174.947 443.899 176.02C441.285 177.047 438.275 177.56 434.869 177.56ZM473.009 177.56C469.789 177.56 466.685 177.187 463.699 176.44C460.759 175.647 458.425 174.667 456.699 173.5L460.339 165.66C462.065 166.733 464.095 167.62 466.429 168.32C468.809 168.973 471.142 169.3 473.429 169.3C475.949 169.3 477.722 168.997 478.749 168.39C479.822 167.783 480.359 166.943 480.359 165.87C480.359 164.983 479.939 164.33 479.099 163.91C478.305 163.443 477.232 163.093 475.879 162.86C474.525 162.627 473.032 162.393 471.399 162.16C469.812 161.927 468.202 161.623 466.569 161.25C464.935 160.83 463.442 160.223 462.089 159.43C460.735 158.637 459.639 157.563 458.799 156.21C458.005 154.857 457.609 153.107 457.609 150.96C457.609 148.58 458.285 146.48 459.639 144.66C461.039 142.84 463.045 141.417 465.659 140.39C468.272 139.317 471.399 138.78 475.039 138.78C477.605 138.78 480.219 139.06 482.879 139.62C485.539 140.18 487.755 140.997 489.529 142.07L485.889 149.84C484.069 148.767 482.225 148.043 480.359 147.67C478.539 147.25 476.765 147.04 475.039 147.04C472.612 147.04 470.839 147.367 469.719 148.02C468.599 148.673 468.039 149.513 468.039 150.54C468.039 151.473 468.435 152.173 469.229 152.64C470.069 153.107 471.165 153.48 472.519 153.76C473.872 154.04 475.342 154.297 476.929 154.53C478.562 154.717 480.195 155.02 481.829 155.44C483.462 155.86 484.932 156.467 486.239 157.26C487.592 158.007 488.689 159.057 489.529 160.41C490.369 161.717 490.789 163.443 490.789 165.59C490.789 167.923 490.089 170 488.689 171.82C487.289 173.593 485.259 174.993 482.599 176.02C479.985 177.047 476.789 177.56 473.009 177.56ZM512.926 177.56C508.493 177.56 505.04 176.44 502.566 174.2C500.093 171.913 498.856 168.53 498.856 164.05V131.01H509.776V163.91C509.776 165.497 510.196 166.733 511.036 167.62C511.876 168.46 513.02 168.88 514.466 168.88C516.193 168.88 517.663 168.413 518.876 167.48L521.816 175.18C520.696 175.973 519.343 176.58 517.756 177C516.216 177.373 514.606 177.56 512.926 177.56ZM493.046 148.58V140.18H519.156V148.58H493.046Z" fill="#161515"/>
<circle cx="114" cy="114" r="111.5" stroke="#161515" stroke-width="5"/>
<circle cx="114" cy="114" r="96.5" fill="#161515" stroke="#161515" stroke-width="3"/>
<path d="M77 100L42 161H187L161 117L142 127L123 66L111 100L104 95L88 117L77 100Z" stroke="white" stroke-width="5"/>
<path d="M88 117L93.3846 126.429L99.8462 118.571L123 161" stroke="white" stroke-width="5"/>
<path d="M116 147.5L125 135L129 140L135 147.5L139 142L151 161" stroke="white" stroke-width="5"/>
</svg>
