<svg width="554" height="228" viewBox="0 0 554 228" fill="none" xmlns="http://www.w3.org/2000/svg">
<circle cx="114" cy="114" r="111.5" stroke="#161515" stroke-width="5"/>
<circle cx="114" cy="114" r="96.5" stroke="#161515" stroke-width="3"/>
<path d="M77 100L42 161H187L161 117L142 127L123 66L111 100L104 95L88 117L77 100Z" stroke="#161515" stroke-width="5"/>
<path d="M88 117L93.3846 126.429L99.8462 118.571L123 161" stroke="#161515" stroke-width="5"/>
<path d="M116 147.5L125 135L129 140L135 147.5L139 142L151 161" stroke="#161515" stroke-width="5"/>
<path d="M258.96 90V50.24H243.28V41H285.98V50.24H270.3V90H258.96ZM314.201 51.78C317.188 51.78 319.848 52.3867 322.181 53.6C324.561 54.7667 326.428 56.5867 327.781 59.06C329.135 61.4867 329.811 64.6133 329.811 68.44V90H318.891V70.12C318.891 67.0867 318.215 64.8467 316.861 63.4C315.555 61.9533 313.688 61.23 311.261 61.23C309.535 61.23 307.971 61.6033 306.571 62.35C305.218 63.05 304.145 64.1467 303.351 65.64C302.605 67.1333 302.231 69.0467 302.231 71.38V90H291.311V38.06H302.231V62.77L299.781 59.62C301.135 57.1 303.071 55.1633 305.591 53.81C308.111 52.4567 310.981 51.78 314.201 51.78ZM358.673 90.56C354.38 90.56 350.6 89.72 347.333 88.04C344.113 86.36 341.617 84.0733 339.843 81.18C338.07 78.24 337.183 74.9033 337.183 71.17C337.183 67.39 338.047 64.0533 339.773 61.16C341.547 58.22 343.95 55.9333 346.983 54.3C350.017 52.62 353.447 51.78 357.273 51.78C360.96 51.78 364.273 52.5733 367.213 54.16C370.2 55.7 372.557 57.94 374.283 60.88C376.01 63.7733 376.873 67.25 376.873 71.31C376.873 71.73 376.85 72.22 376.803 72.78C376.757 73.2933 376.71 73.7833 376.663 74.25H346.073V67.88H370.923L366.723 69.77C366.723 67.81 366.327 66.1067 365.533 64.66C364.74 63.2133 363.643 62.0933 362.243 61.3C360.843 60.46 359.21 60.04 357.343 60.04C355.477 60.04 353.82 60.46 352.373 61.3C350.973 62.0933 349.877 63.2367 349.083 64.73C348.29 66.1767 347.893 67.9033 347.893 69.91V71.59C347.893 73.6433 348.337 75.4633 349.223 77.05C350.157 78.59 351.44 79.78 353.073 80.62C354.753 81.4133 356.713 81.81 358.953 81.81C360.96 81.81 362.71 81.5067 364.203 80.9C365.743 80.2933 367.143 79.3833 368.403 78.17L374.213 84.47C372.487 86.43 370.317 87.9467 367.703 89.02C365.09 90.0467 362.08 90.56 358.673 90.56ZM270.93 136.78C273.917 136.78 276.577 137.387 278.91 138.6C281.29 139.767 283.157 141.587 284.51 144.06C285.863 146.487 286.54 149.613 286.54 153.44V175H275.62V155.12C275.62 152.087 274.943 149.847 273.59 148.4C272.283 146.953 270.417 146.23 267.99 146.23C266.263 146.23 264.7 146.603 263.3 147.35C261.947 148.05 260.873 149.147 260.08 150.64C259.333 152.133 258.96 154.047 258.96 156.38V175H248.04V123.06H258.96V147.77L256.51 144.62C257.863 142.1 259.8 140.163 262.32 138.81C264.84 137.457 267.71 136.78 270.93 136.78ZM296.438 175V137.34H307.358V175H296.438ZM301.898 132.09C299.892 132.09 298.258 131.507 296.998 130.34C295.738 129.173 295.108 127.727 295.108 126C295.108 124.273 295.738 122.827 296.998 121.66C298.258 120.493 299.892 119.91 301.898 119.91C303.905 119.91 305.538 120.47 306.798 121.59C308.058 122.663 308.688 124.063 308.688 125.79C308.688 127.61 308.058 129.127 306.798 130.34C305.585 131.507 303.952 132.09 301.898 132.09ZM335.203 189.14C331.656 189.14 328.226 188.697 324.913 187.81C321.646 186.97 318.916 185.687 316.723 183.96L321.063 176.12C322.65 177.427 324.656 178.453 327.083 179.2C329.556 179.993 331.983 180.39 334.363 180.39C338.236 180.39 341.036 179.527 342.763 177.8C344.536 176.073 345.423 173.507 345.423 170.1V164.43L346.123 154.98L345.983 145.46V137.34H356.343V168.7C356.343 175.7 354.523 180.857 350.883 184.17C347.243 187.483 342.016 189.14 335.203 189.14ZM333.523 173.18C330.023 173.18 326.85 172.433 324.003 170.94C321.203 169.4 318.94 167.277 317.213 164.57C315.533 161.817 314.693 158.62 314.693 154.98C314.693 151.293 315.533 148.097 317.213 145.39C318.94 142.637 321.203 140.513 324.003 139.02C326.85 137.527 330.023 136.78 333.523 136.78C336.696 136.78 339.496 137.433 341.923 138.74C344.35 140 346.24 141.983 347.593 144.69C348.946 147.35 349.623 150.78 349.623 154.98C349.623 159.133 348.946 162.563 347.593 165.27C346.24 167.93 344.35 169.913 341.923 171.22C339.496 172.527 336.696 173.18 333.523 173.18ZM335.693 164.22C337.606 164.22 339.31 163.847 340.803 163.1C342.296 162.307 343.463 161.21 344.303 159.81C345.143 158.41 345.563 156.8 345.563 154.98C345.563 153.113 345.143 151.503 344.303 150.15C343.463 148.75 342.296 147.677 340.803 146.93C339.31 146.137 337.606 145.74 335.693 145.74C333.78 145.74 332.076 146.137 330.583 146.93C329.09 147.677 327.9 148.75 327.013 150.15C326.173 151.503 325.753 153.113 325.753 154.98C325.753 156.8 326.173 158.41 327.013 159.81C327.9 161.21 329.09 162.307 330.583 163.1C332.076 163.847 333.78 164.22 335.693 164.22ZM389.397 136.78C392.383 136.78 395.043 137.387 397.377 138.6C399.757 139.767 401.623 141.587 402.977 144.06C404.33 146.487 405.007 149.613 405.007 153.44V175H394.087V155.12C394.087 152.087 393.41 149.847 392.057 148.4C390.75 146.953 388.883 146.23 386.457 146.23C384.73 146.23 383.167 146.603 381.767 147.35C380.413 148.05 379.34 149.147 378.547 150.64C377.8 152.133 377.427 154.047 377.427 156.38V175H366.507V123.06H377.427V147.77L374.977 144.62C376.33 142.1 378.267 140.163 380.787 138.81C383.307 137.457 386.177 136.78 389.397 136.78ZM433.869 175.56C429.575 175.56 425.795 174.72 422.529 173.04C419.309 171.36 416.812 169.073 415.039 166.18C413.265 163.24 412.379 159.903 412.379 156.17C412.379 152.39 413.242 149.053 414.969 146.16C416.742 143.22 419.145 140.933 422.179 139.3C425.212 137.62 428.642 136.78 432.469 136.78C436.155 136.78 439.469 137.573 442.409 139.16C445.395 140.7 447.752 142.94 449.479 145.88C451.205 148.773 452.069 152.25 452.069 156.31C452.069 156.73 452.045 157.22 451.999 157.78C451.952 158.293 451.905 158.783 451.859 159.25H421.269V152.88H446.119L441.919 154.77C441.919 152.81 441.522 151.107 440.729 149.66C439.935 148.213 438.839 147.093 437.439 146.3C436.039 145.46 434.405 145.04 432.539 145.04C430.672 145.04 429.015 145.46 427.569 146.3C426.169 147.093 425.072 148.237 424.279 149.73C423.485 151.177 423.089 152.903 423.089 154.91V156.59C423.089 158.643 423.532 160.463 424.419 162.05C425.352 163.59 426.635 164.78 428.269 165.62C429.949 166.413 431.909 166.81 434.149 166.81C436.155 166.81 437.905 166.507 439.399 165.9C440.939 165.293 442.339 164.383 443.599 163.17L449.409 169.47C447.682 171.43 445.512 172.947 442.899 174.02C440.285 175.047 437.275 175.56 433.869 175.56ZM472.009 175.56C468.789 175.56 465.685 175.187 462.699 174.44C459.759 173.647 457.425 172.667 455.699 171.5L459.339 163.66C461.065 164.733 463.095 165.62 465.429 166.32C467.809 166.973 470.142 167.3 472.429 167.3C474.949 167.3 476.722 166.997 477.749 166.39C478.822 165.783 479.359 164.943 479.359 163.87C479.359 162.983 478.939 162.33 478.099 161.91C477.305 161.443 476.232 161.093 474.879 160.86C473.525 160.627 472.032 160.393 470.399 160.16C468.812 159.927 467.202 159.623 465.569 159.25C463.935 158.83 462.442 158.223 461.089 157.43C459.735 156.637 458.639 155.563 457.799 154.21C457.005 152.857 456.609 151.107 456.609 148.96C456.609 146.58 457.285 144.48 458.639 142.66C460.039 140.84 462.045 139.417 464.659 138.39C467.272 137.317 470.399 136.78 474.039 136.78C476.605 136.78 479.219 137.06 481.879 137.62C484.539 138.18 486.755 138.997 488.529 140.07L484.889 147.84C483.069 146.767 481.225 146.043 479.359 145.67C477.539 145.25 475.765 145.04 474.039 145.04C471.612 145.04 469.839 145.367 468.719 146.02C467.599 146.673 467.039 147.513 467.039 148.54C467.039 149.473 467.435 150.173 468.229 150.64C469.069 151.107 470.165 151.48 471.519 151.76C472.872 152.04 474.342 152.297 475.929 152.53C477.562 152.717 479.195 153.02 480.829 153.44C482.462 153.86 483.932 154.467 485.239 155.26C486.592 156.007 487.689 157.057 488.529 158.41C489.369 159.717 489.789 161.443 489.789 163.59C489.789 165.923 489.089 168 487.689 169.82C486.289 171.593 484.259 172.993 481.599 174.02C478.985 175.047 475.789 175.56 472.009 175.56ZM511.926 175.56C507.493 175.56 504.04 174.44 501.566 172.2C499.093 169.913 497.856 166.53 497.856 162.05V129.01H508.776V161.91C508.776 163.497 509.196 164.733 510.036 165.62C510.876 166.46 512.02 166.88 513.466 166.88C515.193 166.88 516.663 166.413 517.876 165.48L520.816 173.18C519.696 173.973 518.343 174.58 516.756 175C515.216 175.373 513.606 175.56 511.926 175.56ZM492.046 146.58V138.18H518.156V146.58H492.046Z" fill="#161515"/>
</svg>
