<svg id="b1ec2e36-1359-433c-9431-eb35df1f1cab" data-name="Layer 13" xmlns="http://www.w3.org/2000/svg" viewBox="0 0 2000 825.74"><defs><style>.a0a03df5-c2be-46f4-b235-19cbb8047582{fill:#b2b1b1;}</style></defs><polygon class="a0a03df5-c2be-46f4-b235-19cbb8047582" points="0 326.72 51.2 302.4 97.28 302.4 123.2 270.72 180.8 256.32 238.4 230.4 296 190.08 333.44 216 382.4 227.52 416.96 201.6 437.12 158.4 468.8 138.24 532.16 138.24 560.96 95.04 612.8 76.23 647.36 76.23 673.28 115.2 673.28 132.48 704.96 138.24 739.52 158.4 768.32 178.56 817.28 201.48 840.32 236.16 872 262.08 923.84 241.92 981.44 201.48 1000 164.16 1036.16 152.64 1076.48 109.44 1122.56 109.44 1160 76.23 1188.8 31.68 1220.48 0 1246.4 14.4 1272.32 60.48 1304 76.23 1340.8 40.32 1370.24 51.84 1384.64 76.23 1422.08 115.2 1462.4 144 1531.52 163.36 1589.12 204.48 1678.4 163.36 1730.24 187.2 1773.44 233.28 1880 276.48 1977.92 250.56 2000 259.2 2000 825.74 0 825.74 0 326.72"/></svg>