<svg id="a4208287-b0d7-4a1e-ae1b-130f9cfe9dfd" data-name="Layer 8" xmlns="http://www.w3.org/2000/svg" viewBox="0 0 1426.82 943.82"><defs><style>.bacd6e28-8d08-4fd6-a671-253e2a5a0704{fill:#c9c9c8;}</style></defs><path class="bacd6e28-8d08-4fd6-a671-253e2a5a0704" d="M0,578.24l108.8,66.24,54.72-66.24h20.16l5.76,20.16,40.32-43.2h14.4v20.16s17.28,2.88,25.92,8.64,14.4,15.84,14.4,15.84l14.4,24.48L345,615.68V633l37.44-2.88s20.16-43.2,31.68-30.24,0-1.44,11.52,13,40.32,17.28,40.32,17.28l23-8.64,20.16,23h23c14.4,0,40.32,31.68,40.32,31.68h46.08l31.68,11.52S676.8,705,677.92,713.6s18.4,35.91,18.4,35.91h57.6l20.16,21.69,47.1,23,60.68,64.3,45.22-8.64,13.38,15.28,161.94,71.74L1128.32,994l51.84-11.11s25.92,44.36,40.32,44.5,126.72,34,126.72,34l31.68,35.28,34.06,57.07v85.81s-3.38,136.48,0,139.36,13.88,89.28,13.88,89.28L1393.28,1499H0Z" transform="translate(0 -555.2)"/></svg>