<svg id="b25cd260-789a-49bf-ab1c-5cee76aa1cde" data-name="Layer 9" xmlns="http://www.w3.org/2000/svg" viewBox="0 0 1430.92 733.58"><defs><style>.e4e77fba-7859-4b51-92c2-6cb4122838fe{fill:#c7c2be;}</style></defs><path class="e4e77fba-7859-4b51-92c2-6cb4122838fe" d="M2000,794.24h-48L1911.68,808l-63.36-13.8s-8.64,2.88-28.8,0-123.84-28.8-123.84-28.8l-46.08,21.3h-25.92l-23,7.5-40.32,14.16h-60.48l-43.2,23-69.12,8.44-95,25.33-94.08,10.06-24,15.72-90.07,9.62-69.46,36.34-56.5,46-117.69,20.88s-69.48,32.32-69.48,39.56-57.79,146.28-57.79,146.28-117.89,64.64-120.77,72.24-37.44,96.88-17.28,117,123.84,30.24,123.84,30.24-28.16,36-21.28,44.64,4,43.2,21.28,43.2S2000,1499,2000,1499Z" transform="translate(-569.08 -765.44)"/></svg>