<svg id="a09cdd27-66b6-41c4-a8ec-644a967dead2" data-name="Layer 12" xmlns="http://www.w3.org/2000/svg" viewBox="0 0 1832.4 346.08"><defs><style>.b112c983-48cc-48fe-881a-401b12fc3bd9{fill:#fff;}</style></defs><ellipse class="b112c983-48cc-48fe-881a-401b12fc3bd9" cx="1742.58" cy="329.94" rx="29.7" ry="12.42"/><ellipse class="b112c983-48cc-48fe-881a-401b12fc3bd9" cx="1777.68" cy="326.16" rx="24.84" ry="14.53"/><ellipse class="b112c983-48cc-48fe-881a-401b12fc3bd9" cx="1780.02" cy="333.12" rx="52.38" ry="12.96"/><ellipse class="b112c983-48cc-48fe-881a-401b12fc3bd9" cx="1782" cy="281.34" rx="20.52" ry="9.18"/><path class="b112c983-48cc-48fe-881a-401b12fc3bd9" d="M1597,366.05s-60.48-5.76-83.52,17.28c0,0-51.84-5.76-63.36,0s-86.4,2.88-86.4,25.92c0,0,0,23,92.16,28.8,0,0,43.2,25.92,103.68,23,0,0,19.44,10.23,65.52-9.93,0,0,63.72,13.47,89.64-19.44,0,0,69.84,0,74.52-18.36,6.88-27-109.08-23.76-109.08-23.76a100.59,100.59,0,0,0-38.88-18.36A233.31,233.31,0,0,0,1597,366.05Z" transform="translate(-48.32 -162.8)"/><ellipse class="b112c983-48cc-48fe-881a-401b12fc3bd9" cx="1680.48" cy="202.61" rx="19.44" ry="7.56"/><ellipse class="b112c983-48cc-48fe-881a-401b12fc3bd9" cx="1802.52" cy="272.16" rx="15.12" ry="5.94"/><ellipse class="b112c983-48cc-48fe-881a-401b12fc3bd9" cx="300.33" cy="156.92" rx="129.6" ry="25.92"/><ellipse class="b112c983-48cc-48fe-881a-401b12fc3bd9" cx="475.2" cy="120.8" rx="174.87" ry="38.12"/><ellipse class="b112c983-48cc-48fe-881a-401b12fc3bd9" cx="459.36" cy="182.84" rx="108" ry="25.11"/><ellipse class="b112c983-48cc-48fe-881a-401b12fc3bd9" cx="601.97" cy="157.73" rx="101.97" ry="28.08"/><ellipse class="b112c983-48cc-48fe-881a-401b12fc3bd9" cx="703.94" cy="157.73" rx="76.22" ry="14.04"/><ellipse class="b112c983-48cc-48fe-881a-401b12fc3bd9" cx="191.74" cy="80.68" rx="50.18" ry="14.26"/><ellipse class="b112c983-48cc-48fe-881a-401b12fc3bd9" cx="222.82" cy="60.21" rx="40.21" ry="14.85"/><ellipse class="b112c983-48cc-48fe-881a-401b12fc3bd9" cx="257.04" cy="80.68" rx="38.76" ry="15.5"/><ellipse class="b112c983-48cc-48fe-881a-401b12fc3bd9" cx="162.09" cy="8.1" rx="20.52" ry="8.1"/><ellipse class="b112c983-48cc-48fe-881a-401b12fc3bd9" cx="30.24" cy="132.25" rx="30.24" ry="11.45"/></svg>