<svg xmlns="http://www.w3.org/2000/svg" viewBox="0 0 377.66 691.58"><defs><style>.a3fb3ab1-46be-4f61-9785-0dcf4f5b82d4{fill:#161515;}.a930c945-4c97-4ddc-a3cb-e87bbcd524a1{fill:#353333;}.e8b4c446-1b0e-4fca-a2bb-d58181deed07{fill:#514f4f;}.e55cf1d8-68f9-4acc-9fe3-6d2026f74609{fill:none;stroke:#514f4f;stroke-miterlimit:10;}</style></defs><g id="e9e95004-e57e-4fbc-943e-f0c94a1bd122" data-name="Layer 2"><g id="a508f68f-fcd9-48aa-ab76-8edfeb0de3d1" data-name="man"><path class="a3fb3ab1-46be-4f61-9785-0dcf4f5b82d4" d="M64.59,691.58s-9-47.43-8.28-89.91c0,0-6.56-3.6,0-10.08,0,0-.37-5,2.71-20.16,0,0,3.81-6.72-3.39-10.56,0,0-3.6-5,6-6a19,19,0,0,0,1.2-10.32s-1-5.28-5.52,0c0,0-9.6,6.48-14.64-7.2,0,0-1.2-8.16-14.64-13.68,0,0-3.6-1.92-2.16-7.68,0,0,1.2-1.2-4.8-7.92a16.32,16.32,0,0,1-5-6.72s-4.56-12.24-11.28-18.72c0,0-9.12-15.12,2.16-28.8,0,0-12.48-26.64-2.64-34.8a21.8,21.8,0,0,1,1.68-17s1.68-18.24,5.76-21.84l5.52-50.64s1.68-21.84,7.2-36.48c0,0,11.52-37.2,15.36-45.12,0,0,7.2-17.76,12-24,0,0,9.6-15.6,25.44-19.92,0,0-1.68-7.44,6.48-12.48,0,0,7.44-3,14.64,1,0,0,2.4-9,11.28-8.72,0,0-4.32-14.64,0-23.28,0,0,1.92-5,2.4-14.88,0,0-.24-10.8,4.08-19,0,0,1.92-3.36,1.2-9.12,0,0-1.68-7.68,5.28-18.72,0,0,4.08-10.8,4.8-15.36s2.4-16.8,5-23,12.48-33.36,23.76-38.4c0,0,2.88-.48,6.72-6.48,0,0,3.12-6,11.52-8.16a28.24,28.24,0,0,1,3.12-1.92s.48-1.68,7.68-2.64c0,0,2.64-4.32,11.28,0,0,0,19.92,9.12,26.4,19.68a28.33,28.33,0,0,0,7.2,6.48c5,3.36,11.52,16.56,11.52,16.56s8.17,21.38,12,25.92c0,0,10.13,18.7,13.92,33.36,0,0,6.24,22.56,5.28,35.76s-1.68,35.28-7.92,38.4c0,0,5,1.92,9.84,12,0,0,2.4,8.4,6,7.92,0,0,15.6,1,14.4,10.32a41.12,41.12,0,0,0,15.36,6.24s18.24,2.64,18.72,16.32c0,0,.72,7.92,10.8,16.08,0,0,18.24,14.4,19.92,50.16,0,0-1.2,5.52,2.16,9.36,0,0,2.4,2.64,2.64,10.56s6.48,22.8,5.52,30.72-1.68,15.12,1.44,36.72c0,0,1,2.4,0,10.08,0,0,5.52,1.44,2.4,18.72,0,0,5.52,4.32,2.88,14.64,0,0-2.16,8.88-5,11.76a18.4,18.4,0,0,0-.48,9.6c1.2,5-2.64,17.28-2.64,17.28a12.28,12.28,0,0,1-5.52,9.36s6,10.32,2.88,19.2c0,0-3.6,4.32-3.12,8.4a18.13,18.13,0,0,1-7,9.12A24.71,24.71,0,0,0,346,526.07a30.44,30.44,0,0,1-7.92,15.12s-7,11-14.16,15.36c0,0-6,2.88-8.16-2.16,0,0-.48-2.64-2.4-2.16l-7.2.48s-3.6,6,3.12,10.8c0,0,8.16,4.32,2.64,13,0,0,3.6,6.48-1.68,12a34.55,34.55,0,0,1,3.12,18.24s1.44,13.2-1,19c0,0-2.64,47.52-11,62.88l-1.92,3Z"/><path class="a930c945-4c97-4ddc-a3cb-e87bbcd524a1" d="M6.15,455.75s-10.08,8.64-2.88,22.08c0,0-1.44-10.08,2.88-5.28,0,0,3.84,4.32,4.8-1.44S6.15,455.75,6.15,455.75Z"/><path class="a930c945-4c97-4ddc-a3cb-e87bbcd524a1" d="M.68,426.11s2.71-3.12,2.71,0,1,8.88,2.48,4.2c0,0,3.16-1-1.64-11.28Z"/><path class="a930c945-4c97-4ddc-a3cb-e87bbcd524a1" d="M12.33,374.11s5.46-10.76,7.62-21.2c0,0,.3-11.16-3.81-11.16Z"/><path class="a930c945-4c97-4ddc-a3cb-e87bbcd524a1" d="M45.06,235.87s5.49-9,9.09-5.72c0,0,7.56-19.08,13-13.68,0,0,8.64-11.88,9.36-6.84s.72-5.64.72-5.64S55.3,210.84,45.06,235.87Z"/><path class="a930c945-4c97-4ddc-a3cb-e87bbcd524a1" d="M77.19,200.55a20.2,20.2,0,0,1,15.22-9.93s-5.83-1.25-10.71,1.14C81.7,191.76,77.19,197.1,77.19,200.55Z"/><path class="a930c945-4c97-4ddc-a3cb-e87bbcd524a1" d="M106.35,200.55s5-16.64,13-10.26c0,0,2.42-7.58-4.32-10.18C115,180.11,106.35,181,106.35,200.55Z"/><path class="a930c945-4c97-4ddc-a3cb-e87bbcd524a1" d="M94.47,202.07s7.92-16.88,11.88-9.52l3.4-8.24s-6.1-1.55-8.77,3.35S94.47,202.07,94.47,202.07Z"/><path class="a930c945-4c97-4ddc-a3cb-e87bbcd524a1" d="M133.37,58.08s3.58-7.21,4.3,9.71c0,0,1.44-22.68,4.32-19.44,0,0,2.88-13.68,6.12-10.44,0,0,3.6,6.21,4.32-.49,0,0,2.16-12.47,6.48-12.11,0,0,1.32-5.91,2.64-7.81s-4.05,3.86-5.4,4.57S142,32.53,133.37,58.08Z"/><path class="a930c945-4c97-4ddc-a3cb-e87bbcd524a1" d="M164.23,13.67s4-3.48,8-2.76c0,0,11-8.64,16.83-7.56s16.65,4.32,26.37,15.84c0,0-3.25-4.4,2.52,0L224,24s-7.75-10-16.32-14.9c0,0-11.2-8.71-16.05-8.11,0,0-1.16-1.72-9.22,2.38,0,0-5.46.43-8.78,4C173.67,7.31,166.91,9.83,164.23,13.67Z"/><path class="e8b4c446-1b0e-4fca-a2bb-d58181deed07" d="M56.21,601.87c-5.88-2.81-5.76-7.52-.24-10.68l-.2.37a122.72,122.72,0,0,1,2-15.17c.3-1.68.68-3.33,1-5l.36.07c-.52,3.35-1,6.7-1.37,10.07l-1,10.09,0,.18c-1.28,1.43-3.11,3-3.38,5s1.35,4,3,4.7l-.19.4Z"/><path class="e8b4c446-1b0e-4fca-a2bb-d58181deed07" d="M32.16,526.11c-5.41-.53-8.58-6.4-7-11.38l.12.41c-1.82-2.08-3.57-4.19-5.26-6.36a38.6,38.6,0,0,1-4.7-7.31c-.36-.62-1.09-1.81-1.49-2.43-1.13-1.75-4.16-6.51-5.32-8.32C6.22,487,3.79,483.24,2.26,479c-3.31-8.32-3.87-19.78,4.45-25.4a38.22,38.22,0,0,1,4.4,10.51c.68,2.72,1.7,9.13-1.81,10.11,4.06-3.09-2.21-15.26-3.25-19.62l.77.16C.17,460.82.61,470.69,3.58,478.53c2.11,5.85,6.23,11.75,9.46,17.14.8,1.29,2.26,3.65,3,4.94a40.24,40.24,0,0,0,4.79,7.56c1.7,2.23,3.5,4.38,5.37,6.47-.51,4.76,1.46,9.21,6,11.12l-.08.35Z"/><path class="e55cf1d8-68f9-4acc-9fe3-6d2026f74609" d="M6.5,454.39S-4.94,428.3,4.23,419"/><path class="e8b4c446-1b0e-4fca-a2bb-d58181deed07" d="M6.41,402c-.15,1.46-1.25,2.22-1.7,3.46-1.34,3.37-.77,7.15-.25,10.69A87.84,87.84,0,0,0,7,427c.34,1.16.45,3-1,3.43l-.06-.17a1.63,1.63,0,0,0,.62-.57,3.26,3.26,0,0,0-.16-2.5c-.4-1.17-.8-2.35-1.17-3.54-1.27-4.83-2.51-9.71-2.28-14.78a11.18,11.18,0,0,1,.87-3.78c.39-1.08,1.51-2,1.65-3.1l1,.07Z"/><path class="e8b4c446-1b0e-4fca-a2bb-d58181deed07" d="M6.59,409.11c-1.62-9-2-22.16,4.68-29.26.48-10.22,2-23.35,3.12-34.53,1.28-11.58,2.57-23.15,4.08-34.71A50,50,0,0,1,20.33,302c2.42-8.14,5.14-17,7.85-25C31.84,266,36,254.54,40.46,244.25c6.18-17.41,17.79-35.65,36.6-40.74l.62-.18v.74a112,112,0,0,0,1.49,18.46l-.36.13c-3.15-5.62-3.51-12.55-2.12-18.74l.62.56a38.65,38.65,0,0,0-6.48,2.44c-14.64,7.49-23.62,22.79-28.93,37.83-4.58,10.68-8.48,21.66-12.14,32.7-2.66,8-5.36,16.88-7.73,25a48.49,48.49,0,0,0-1.78,8.4c-2.9,23.1-5,46.33-8.09,69.41-3.44,6.59-4.48,14-4.85,21.36-.12,2.46-.18,4.95-.16,7.43l-.56.07Z"/><path class="e8b4c446-1b0e-4fca-a2bb-d58181deed07" d="M32.74,289.17a338.27,338.27,0,0,1,5-33.8,74,74,0,0,1,3-11.07l.93.36c-2.84,10.51-4.4,22.62-6.48,33.37-.68,3.73-1.35,7.46-2.09,11.19l-.34-.05Z"/><path class="e8b4c446-1b0e-4fca-a2bb-d58181deed07" d="M53.21,253.89c-1.07-13.34-1.47-35.95,10.57-44.6,3.3-2.23,6.67-5,10.91-5.13a2.92,2.92,0,0,1,2.71,3.31l-1,.05c-.13-1.1-.55-2-1.76-2-3.58.53-6.7,3.25-9.61,5.38-8,6.1-9.49,18-10.6,27.47-.48,5.15-.58,10.27-.63,15.54l-.59-.05Z"/><path class="e8b4c446-1b0e-4fca-a2bb-d58181deed07" d="M75.77,205.41c.63-14.08,10.14-20.15,22.75-13.31l-.7.33a11.82,11.82,0,0,1,.69-3.4c1-2.84,3.23-5.81,6.51-6.13a15.19,15.19,0,0,1,4.77.91l-.49.27c.88-3.66,5.58-6.91,8.44-3.08a8.23,8.23,0,0,1,1.43,3.08c-1.19-1.36-2.75-3.41-4.62-3.11-1.89.48-3.23,2.55-4.68,3.9l-.16-.06c-1.82.43-3.89-.12-5.51.86-2.52,1.58-3.79,4.41-5.41,7l-.35.6L98.1,193c-12.15-5.2-19.41-.51-20.69,12.45l-1.64-.05Z"/><path class="e8b4c446-1b0e-4fca-a2bb-d58181deed07" d="M106.23,200.54c-.38-3.33-1-16.34,3.47-16.72l-.42.66c-2.37-7.75-3.48-16.5-.14-24.14l.9.43c-3.25,7.46-2.08,16.14.29,23.7l-.54.34a27.89,27.89,0,0,0-.85,3.36c-1,4.07-1.54,8.23-2.48,12.38Z"/><path class="e8b4c446-1b0e-4fca-a2bb-d58181deed07" d="M94.38,202c1-2.86,2.1-6,3.17-8.84l.55-1.46a3,3,0,0,1,.75-1.38l.92.39a3.11,3.11,0,0,1-.46,1.5l-.66,1.42-1.33,2.83c-.9,1.87-1.81,3.75-2.77,5.61l-.17-.07Z"/><path class="e8b4c446-1b0e-4fca-a2bb-d58181deed07" d="M111.39,175.43s-4-18.36,0-26.64c0,0,1.46-15.65,4.68-22.08,0,0-1.12-23,7.72-31.24,0,0,1.93-2,3.56-12,0,0-4.56,23.52,0,37.2"/><path class="e8b4c446-1b0e-4fca-a2bb-d58181deed07" d="M126.85,83.43a122,122,0,0,1,6-27c1-2.9,2.43-5.7,3.66-8.5,2.47-5.59,5.12-11.26,8.83-16.26,3.35-4.68,9.24-10.1,13.35-12.4C161.53,13,167.82,8.94,174.23,7l-.31.31a6.11,6.11,0,0,1,3.47-3.92,7.39,7.39,0,0,1,5.06-.52l-.34.13C187.92-2.4,196.91.26,202.2,5l-.18.25A47.61,47.61,0,0,0,197.3,3c-4.64-1.89-10.22-2.12-14.51.7l-.23.16-.11,0c-2.74.79-6.11,1.31-7.66,4a31.94,31.94,0,0,0-12.29,8.06,21.38,21.38,0,0,0-2.94,3.94l-.13.09a51.78,51.78,0,0,0-12.88,12.65c-3.53,4.91-6,10.48-8.42,16.1-.89,2.09-1.91,4.16-2.78,6.27A92.54,92.54,0,0,0,132,65.76c-1.49,5.91-2.61,11.91-4.17,17.83l-1-.16Z"/><path class="e8b4c446-1b0e-4fca-a2bb-d58181deed07" d="M161,17.34c.15.33.71.41,1.05.49,5,.5,10.12-.56,15.15-.92l.08.4a51,51,0,0,1-8.72,2.18c-2.47.3-5.2.78-7.58-.39a1.64,1.64,0,0,1-.87-2.21l.89.45Z"/><path class="e8b4c446-1b0e-4fca-a2bb-d58181deed07" d="M159.53,19.8c-3.12,5.48-4.74,11.72-6.73,17.68l-.74-.13a31.16,31.16,0,0,1,1.77-9.64,22.51,22.51,0,0,1,4.95-8.57l.75.66Z"/><path class="e8b4c446-1b0e-4fca-a2bb-d58181deed07" d="M137.57,66c-1.48-6.74-1.74-18.87,1.81-24.16.59-1.29,2.32-2.91,3.67-1.59a4.69,4.69,0,0,1,1.06,2.08l-1,.08a61.07,61.07,0,0,1,2.47-9.68,11.16,11.16,0,0,1,1.59-3.08l.76.66c-1.23,1.63-1.81,3.89-2.4,5.87A47.82,47.82,0,0,0,144,44.26a25.76,25.76,0,0,0-1.4-2.72c-.52-.62-.62-.64-1.15,0-2.46,3.44-2.56,8.21-2.95,12.39-.2,3.56-.41,8.56-.89,12.07Z"/><path class="e55cf1d8-68f9-4acc-9fe3-6d2026f74609" d="M133.37,57.73s3.17-10,4.27-5.42"/><path class="e8b4c446-1b0e-4fca-a2bb-d58181deed07" d="M6.11,430.27a3,3,0,0,1-1,1.82.55.55,0,0,1-.58.09c-.4-.24-.35-.57-.39-.84l.15,0c.13.21.28.5.39.49.5-.28.82-1.13,1.25-1.61l.2.09Z"/><path class="e8b4c446-1b0e-4fca-a2bb-d58181deed07" d="M141.43,39.48s2.68,1.56,2.21,3l2.62-10.05Z"/></g></g></svg>